<svg width="28" height="27" viewBox="0 0 28 27" fill="none" xmlns="http://www.w3.org/2000/svg">
<path d="M12.667 17.4993H15.3337V20.166H12.667V17.4993ZM12.667 6.83268H15.3337V14.8327H12.667V6.83268ZM13.987 0.166016C6.62699 0.166016 0.666992 6.13935 0.666992 13.4993C0.666992 20.8594 6.62699 26.8327 13.987 26.8327C21.3603 26.8327 27.3337 20.8594 27.3337 13.4993C27.3337 6.13935 21.3603 0.166016 13.987 0.166016ZM14.0003 24.166C8.10699 24.166 3.33366 19.3927 3.33366 13.4993C3.33366 7.60602 8.10699 2.83268 14.0003 2.83268C19.8937 2.83268 24.667 7.60602 24.667 13.4993C24.667 19.3927 19.8937 24.166 14.0003 24.166Z" fill="#3E8D61"/>
</svg>
